<svg width="117" height="40" viewBox="0 0 117 40" fill="none" xmlns="http://www.w3.org/2000/svg">
<path d="M8.22582 39.1334H7.34235C6.73347 39.1456 6.1246 39.0968 5.51572 38.9991C4.94266 38.8893 4.39347 38.6818 3.88011 38.401C3.37868 38.1447 2.91306 37.8151 2.51908 37.4001C2.12511 36.9973 1.79082 36.5213 1.54011 35.9964C1.27745 35.4715 1.09837 34.91 1.00286 34.3363C0.90735 33.7138 0.847656 33.0913 0.847656 32.4688V8.44681V7.55575C0.847656 6.93323 0.90735 6.2985 1.00286 5.68819C1.08643 5.10228 1.26551 4.54079 1.52817 4.00372C1.77888 3.47885 2.10123 3.01501 2.50715 2.59999C2.91306 2.19719 3.36674 1.85541 3.88011 1.59908C4.39347 1.33054 4.94266 1.14745 5.50378 1.0498C6.11266 0.952145 6.72153 0.891113 7.34235 0.891113H109.61C110.219 0.891113 110.828 0.952145 111.425 1.0498C111.998 1.14745 112.547 1.33054 113.06 1.59908C114.075 2.12395 114.899 2.96618 115.412 4.00372C115.663 4.52859 115.842 5.07787 115.937 5.65157C116.033 6.27409 116.093 6.89661 116.105 7.53133V32.4688C116.093 33.0913 116.033 33.7016 115.937 34.3241C115.842 34.91 115.663 35.4715 115.412 35.9964C115.161 36.5091 114.827 36.9729 114.433 37.3879C114.039 37.7907 113.574 38.1325 113.06 38.3888C112.547 38.6818 111.998 38.8893 111.425 39.0114C110.816 39.1212 110.207 39.17 109.598 39.17H8.22582V39.1334Z" fill="black"/>
<path d="M27.0539 24.7058C26.7196 25.8044 26.2182 26.8541 25.5735 27.794C24.702 29.1367 23.7827 30.4428 22.3261 30.4672C20.8696 30.4916 20.4398 29.6127 18.8161 29.6127C17.1925 29.6127 16.6791 30.4428 15.3181 30.4916C13.9571 30.5404 12.8706 29.0757 11.9633 27.7452C10.1486 25.011 8.78758 20.1163 10.6381 16.7839C11.5096 15.1361 13.181 14.0863 15.0077 14.0131C16.3926 14.0131 17.682 15.014 18.5416 15.014C19.4011 15.014 20.9771 13.83 22.6127 14.0131C24.1767 14.0619 25.6212 14.8675 26.5286 16.1736C25.1079 17.0525 24.2363 18.6271 24.2244 20.3238C24.2005 22.2279 25.3228 23.9612 27.0539 24.7058ZM21.4904 12.2188C22.2784 11.2423 22.6724 9.99724 22.5769 8.72778C21.3591 8.86205 20.2488 9.44795 19.437 10.3878C18.649 11.3155 18.2431 12.5239 18.3267 13.7446C19.5444 13.7568 20.7144 13.1953 21.4904 12.2188Z" fill="white"/>
<path d="M41.3311 27.1471H36.7108L35.6005 30.5039H33.6426L38.0241 18.0901H40.0656L44.4472 30.5039H42.4892L41.3311 27.1471ZM37.1884 25.5969H40.8536L39.0867 20.1529H39.0389L37.1884 25.5969ZM53.9146 25.9753C53.9146 28.7828 52.4342 30.5893 50.2136 30.5893C49.0675 30.6503 47.981 30.0278 47.4319 29.0025V33.4822H45.5694V21.4834H47.3244V22.997C47.9094 21.9717 48.9958 21.3614 50.1539 21.398C52.4342 21.3491 53.9027 23.1557 53.9027 25.9997L53.9146 25.9753ZM52.0402 25.9753C52.0402 24.1444 51.0613 22.9726 49.7002 22.9726C48.3392 22.9726 47.3722 24.2054 47.3722 25.9753C47.3722 27.7452 48.3512 29.0269 49.7002 29.0269C51.0493 29.0269 52.0402 27.8307 52.0402 26.012V25.9753ZM63.6447 25.9753C63.6447 28.7828 62.1763 30.5893 59.9556 30.5893C58.8095 30.6503 57.7231 30.0278 57.1739 29.0025V33.4822H55.3115V21.4834H57.0665V22.997C57.6515 21.9717 58.7259 21.3614 59.884 21.398C62.1643 21.3491 63.6328 23.1557 63.6328 25.9997L63.6447 25.9753ZM61.7823 25.9753C61.7823 24.1444 60.863 22.9726 59.4423 22.9726C58.0216 22.9726 57.1262 24.2054 57.1262 25.9753C57.1262 27.7452 58.0574 29.0025 59.4423 29.0025C60.8272 29.0025 61.7823 27.8185 61.7823 25.9997V25.9753ZM70.0917 27.0007C70.223 28.2335 71.393 29.0025 73.0286 29.0025C74.6642 29.0025 75.6551 28.1969 75.6551 27.0861C75.6551 25.9753 74.9866 25.5481 73.4106 25.1453L71.8347 24.7547C69.6022 24.2054 68.5754 23.1435 68.5754 21.4102C68.5754 19.2619 70.3901 17.7971 72.9808 17.7971C75.5716 17.7971 77.3146 19.2619 77.3743 21.4102H75.5119C75.4044 20.1651 74.4016 19.4084 72.945 19.4084C71.4885 19.4084 70.4856 20.1529 70.4856 21.2637C70.4856 22.1304 71.1184 22.6552 72.6824 23.058L74.0195 23.3876C76.5147 23.9857 77.5534 25.011 77.5534 26.8298C77.5534 29.1612 75.7387 30.6137 72.8615 30.6137C70.1752 30.6137 68.3486 29.1978 68.2412 26.9518L70.0917 27.0007ZM81.4693 19.3107V21.4468H83.1527V22.9116H81.4693V27.9039C81.4693 28.6729 81.8036 29.0391 82.5438 29.0391C82.7468 29.0513 82.9378 29.0513 83.1407 29.0391V30.5039C82.8184 30.5649 82.4961 30.6015 82.1618 30.5893C80.359 30.5893 79.6666 29.8936 79.6666 28.1358V22.9116H78.3414V21.4468H79.6307V19.3107H81.4693ZM84.1197 25.9997C84.1197 23.1557 85.7673 21.3614 88.3222 21.3614C90.889 21.3614 92.5127 23.1557 92.5127 25.9997C92.5127 28.8438 90.901 30.6137 88.3222 30.6137C85.7434 30.6137 84.1197 28.8316 84.1197 25.9997ZM90.6741 25.9997C90.6741 24.0467 89.7906 22.8871 88.3222 22.8871C86.8537 22.8871 86.018 23.9979 86.018 25.9997C86.018 28.0016 86.8895 29.1124 88.3699 29.1124C89.8384 29.1124 90.6741 27.9283 90.6741 25.9997ZM94.0289 21.4712H95.7958V22.997C96.0346 22.0083 96.93 21.3247 97.9329 21.3736C98.1478 21.3736 98.3507 21.398 98.5537 21.4468V23.1801C98.303 23.0702 98.0284 23.0092 97.7538 22.997C96.739 22.9238 95.8555 23.6928 95.7839 24.7303C95.772 24.8646 95.7839 24.9866 95.7958 25.1209V30.4917H94.0289V21.4712ZM106.923 27.8795C106.684 29.5152 105.108 30.6503 103.114 30.6503C100.536 30.6503 98.9358 28.8804 98.9358 26.0486C98.9358 23.2167 100.536 21.3736 103.031 21.3736C105.526 21.3736 107.018 23.0946 107.018 25.8411V26.4758H100.762V26.5979C100.655 27.8917 101.598 29.0391 102.864 29.149C102.959 29.1612 103.055 29.1612 103.15 29.1612C104.034 29.2466 104.857 28.734 105.192 27.8917L106.923 27.8795ZM100.786 25.1697H105.216C105.275 23.9735 104.38 22.9482 103.21 22.8871C103.15 22.8871 103.102 22.8871 103.043 22.8871C101.813 22.8871 100.81 23.8881 100.786 25.1453V25.1697Z" fill="white"/>
<path d="M34.8859 8.93479C35.3157 8.65404 35.8529 8.45874 36.5215 8.45874C37.596 8.45874 38.3481 9.03244 38.3481 10.0089C38.3481 10.7901 37.799 11.3883 37.0707 11.5591V11.5836C37.9422 11.6812 38.5869 12.2671 38.5869 13.1826C38.5869 14.5009 37.4766 15.0257 36.3424 15.0257C35.7813 15.0257 35.1844 14.9037 34.7188 14.6107L34.9336 13.9638C35.2679 14.1591 35.8171 14.3544 36.3305 14.3544C37.2498 14.3544 37.7631 13.8417 37.7631 13.146C37.7631 12.1939 36.8677 11.9253 36.0798 11.9253H35.7097V11.3028H36.0798C36.9035 11.3028 37.5363 10.7901 37.5363 10.131C37.5363 9.48407 37.0946 9.13009 36.426 9.13009C35.9604 9.13009 35.4709 9.32539 35.1366 9.5451L34.8859 8.93479Z" fill="white"/>
<path d="M42.0966 14.9157L42.0369 14.342H42.0131C41.7623 14.696 41.2848 15.0256 40.652 15.0256C39.7447 15.0256 39.291 14.3787 39.291 13.7195C39.291 12.621 40.2461 12.0106 41.9772 12.0228V11.9252C41.9772 11.5468 41.8817 10.8632 40.9624 10.8632C40.5446 10.8632 40.1148 10.9975 39.8044 11.205L39.6253 10.6557C39.9954 10.4116 40.5326 10.2529 41.0938 10.2529C42.4548 10.2529 42.7891 11.205 42.7891 12.1205V13.8294C42.7891 14.22 42.813 14.6106 42.8607 14.9279H42.0966V14.9157ZM41.9772 12.5843C41.0938 12.5599 40.0909 12.7308 40.0909 13.6097C40.0909 14.1467 40.4371 14.4031 40.855 14.4031C41.44 14.4031 41.8101 14.0247 41.9295 13.6341C41.9534 13.5486 41.9772 13.451 41.9772 13.3655V12.5843Z" fill="white"/>
<path d="M46.7887 10.3508V11.0222H44.8546V14.916H44.0547V10.3508H46.7887Z" fill="white"/>
<path d="M47.5651 11.839C47.5651 11.2531 47.5412 10.7771 47.5293 10.3498H48.2576L48.2934 11.131H48.3173C48.6515 10.5696 49.1769 10.24 49.9051 10.24C50.9796 10.24 51.7914 11.1677 51.7914 12.5592C51.7914 14.1948 50.8125 15.0127 49.7618 15.0127C49.1768 15.0127 48.6515 14.7441 48.3889 14.2925H48.365V16.7704H47.5651V11.839ZM48.365 13.0596C48.365 13.1817 48.3889 13.2916 48.4008 13.4014C48.5441 13.9751 49.0336 14.3779 49.6186 14.3779C50.4782 14.3779 50.9796 13.6578 50.9796 12.6202C50.9796 11.7047 50.514 10.9235 49.6544 10.9235C49.1052 10.9235 48.5799 11.3264 48.4247 11.9489C48.4008 12.0465 48.365 12.1808 48.365 12.2906V13.0596Z" fill="white"/>
<path d="M53.0085 10.3508L53.9874 13.0484C54.083 13.3536 54.2023 13.7076 54.274 13.9761H54.2979C54.3814 13.7076 54.4769 13.3536 54.5844 13.024L55.4679 10.3508H56.3275L55.1097 13.5977C54.5247 15.1601 54.1307 15.9657 53.5815 16.454C53.1876 16.808 52.7936 16.9544 52.5906 16.991L52.3877 16.2953C52.5906 16.2343 52.8533 16.1 53.092 15.8925C53.3189 15.7094 53.5935 15.392 53.7726 14.9648C53.8084 14.8794 53.8322 14.8183 53.8322 14.7695C53.8322 14.7207 53.8084 14.6596 53.7726 14.5498L52.125 10.3508H53.0085Z" fill="white"/>
<path d="M57.4733 12.267H57.8553C58.5358 12.267 59.0014 11.9496 59.0014 11.5224C59.0014 11.1196 58.6433 10.8632 58.1299 10.8632C57.7718 10.8632 57.3658 10.9853 57.0554 11.1806L56.8525 10.6679C57.3061 10.3872 57.8195 10.2529 58.3329 10.2529C59.0134 10.2529 59.8491 10.5581 59.8491 11.4491C59.8491 12.0106 59.3477 12.3768 58.8462 12.4867V12.5111C59.5148 12.5721 60.064 12.9871 60.064 13.6463C60.064 14.635 59.0731 15.0012 58.1419 15.0012C57.6166 15.0012 57.0912 14.8547 56.6973 14.635L56.9122 14.0735C57.2345 14.2566 57.6643 14.3787 58.0941 14.3787C58.7627 14.3787 59.1925 14.0491 59.1925 13.5975C59.1925 12.9871 58.5597 12.8163 57.8911 12.8163H57.4852V12.267H57.4733Z" fill="white"/>
<path d="M61.8188 10.3508V12.2794C61.8188 12.9996 61.8068 13.4634 61.771 14.1104L61.7949 14.1226C62.0575 13.5611 62.2247 13.2437 62.5112 12.7188L63.908 10.363H64.8631V14.9282H64.0871V12.9996C64.0871 12.255 64.111 11.8644 64.1468 11.132H64.1229C63.8364 11.7179 63.6454 12.0841 63.3827 12.548C62.9529 13.2559 62.4754 14.1348 61.9859 14.9282H61.0547V10.3508H61.8188Z" fill="white"/>
<path d="M69.1736 10.3508V11.01H67.7768V14.916H66.9769V11.01H65.5801V10.3508H69.1736Z" fill="white"/>
<path d="M70.2133 12.7796C70.2372 13.9026 70.9296 14.3665 71.7415 14.3665C72.3265 14.3665 72.6727 14.2688 72.9831 14.1345L73.1264 14.7326C72.8398 14.8669 72.3503 15.0134 71.646 15.0134C70.273 15.0134 69.4492 14.0857 69.4492 12.7186C69.4492 11.3515 70.2372 10.2529 71.5385 10.2529C72.995 10.2529 73.3771 11.559 73.3771 12.4012C73.3771 12.5721 73.3532 12.7064 73.3532 12.7918H70.2133V12.7796ZM72.5891 12.1937C72.6011 11.6689 72.3742 10.851 71.4669 10.851C70.6431 10.851 70.2849 11.62 70.2252 12.1937H72.5891Z" fill="white"/>
<path d="M76.3145 10.4114C76.6249 10.3503 77.2099 10.3137 77.7352 10.3137C78.4873 10.3137 79.717 10.4358 79.717 11.4489C79.717 12.0104 79.2872 12.3644 78.7858 12.4742V12.4986C79.4424 12.5963 79.92 12.9747 79.92 13.6338C79.92 14.83 78.4396 14.9765 77.568 14.9765C77.0666 14.9765 76.5532 14.9399 76.3145 14.9155V10.4114ZM77.0905 14.3662C77.3173 14.3906 77.4845 14.4028 77.7471 14.4028C78.2963 14.4028 79.1081 14.2686 79.1081 13.6094C79.1081 12.9503 78.4634 12.8038 77.6874 12.8038H77.1024V14.3662H77.0905ZM77.0905 12.2667H77.6993C78.2963 12.2667 78.9171 12.0836 78.9171 11.5466C78.9171 11.0949 78.5351 10.8752 77.7232 10.8752C77.4606 10.8752 77.2934 10.8996 77.0905 10.9118V12.2667Z" fill="white"/>
</svg>
