<svg width="147" height="50" viewBox="0 0 147 50" fill="none" xmlns="http://www.w3.org/2000/svg">
<path d="M10.2823 48.9167H9.17794C8.41684 48.9319 7.65574 48.8709 6.89465 48.7488C6.17832 48.6115 5.49184 48.3521 4.85013 48.0012C4.22335 47.6808 3.64133 47.2688 3.14886 46.75C2.65638 46.2465 2.23852 45.6515 1.92513 44.9954C1.59682 44.3393 1.37296 43.6374 1.25358 42.9203C1.13419 42.1422 1.05957 41.364 1.05957 40.5859V10.5584V9.44456C1.05957 8.66641 1.13419 7.873 1.25358 7.11011C1.35804 6.37773 1.58189 5.67587 1.91021 5.00452C2.2236 4.34844 2.62653 3.76864 3.13393 3.24987C3.64133 2.74636 4.20842 2.31914 4.85013 1.99873C5.49184 1.66305 6.17832 1.43418 6.87972 1.31212C7.64082 1.19006 8.40192 1.11377 9.17794 1.11377H137.012C137.773 1.11377 138.535 1.19006 139.281 1.31212C139.997 1.43418 140.684 1.66305 141.325 1.99873C142.594 2.65481 143.623 3.70761 144.265 5.00452C144.579 5.66061 144.802 6.34722 144.922 7.06434C145.041 7.84249 145.116 8.62064 145.131 9.41405V40.5859C145.116 41.364 145.041 42.1269 144.922 42.9051C144.802 43.6374 144.579 44.3393 144.265 44.9954C143.952 45.6362 143.534 46.216 143.041 46.7348C142.549 47.2383 141.967 47.6655 141.325 47.9859C140.684 48.3521 139.997 48.6115 139.281 48.7641C138.52 48.9014 137.759 48.9624 136.997 48.9624H10.2823V48.9167Z" fill="#364962"/>
<path d="M33.8169 30.8822C33.399 32.2554 32.7722 33.5676 31.9664 34.7424C30.877 36.4208 29.7279 38.0534 27.9072 38.0839C26.0865 38.1144 25.5493 37.0159 23.5197 37.0159C21.4901 37.0159 20.8484 38.0534 19.1471 38.1144C17.4458 38.1755 16.0878 36.3445 14.9536 34.6814C12.6853 31.2637 10.984 25.1453 13.2971 20.9799C14.3865 18.92 16.4758 17.6079 18.7591 17.5163C20.4902 17.5163 22.102 18.7675 23.1765 18.7675C24.2509 18.7675 26.2208 17.2875 28.2654 17.5163C30.2203 17.5774 32.0261 18.5844 33.1603 20.217C31.3844 21.3155 30.2949 23.2838 30.28 25.4046C30.2502 27.7849 31.653 29.9515 33.8169 30.8822ZM26.8626 15.2734C27.8475 14.0528 28.34 12.4965 28.2206 10.9097C26.6984 11.0775 25.3105 11.8099 24.2957 12.9847C23.3108 14.1443 22.8034 15.6549 22.9078 17.1806C24.43 17.1959 25.8925 16.494 26.8626 15.2734Z" fill="white"/>
<path d="M51.6654 33.9341H45.89L44.5021 38.13H42.0547L47.5316 22.6128H50.0835L55.5604 38.13H53.113L51.6654 33.9341ZM46.487 31.9964H51.0685L48.8598 25.1913H48.8001L46.487 31.9964ZM67.3947 32.4693C67.3947 35.9787 65.5442 38.2368 62.7685 38.2368C61.3358 38.3131 59.9778 37.535 59.2913 36.2533V41.8529H56.9632V26.8545H59.157V28.7464C59.8882 27.4648 61.2463 26.7019 62.6938 26.7477C65.5442 26.6866 67.3798 28.9448 67.3798 32.4999L67.3947 32.4693ZM65.0518 32.4693C65.0518 30.1807 63.828 28.7159 62.1268 28.7159C60.4255 28.7159 59.2167 30.257 59.2167 32.4693C59.2167 34.6817 60.4404 36.2838 62.1268 36.2838C63.8131 36.2838 65.0518 34.7885 65.0518 32.5151V32.4693ZM79.5574 32.4693C79.5574 35.9787 77.7218 38.2368 74.946 38.2368C73.5134 38.3131 72.1553 37.535 71.4689 36.2533V41.8529H69.1408V26.8545H71.3345V28.7464C72.0658 27.4648 73.4089 26.7019 74.8565 26.7477C77.7069 26.6866 79.5424 28.9448 79.5424 32.4999L79.5574 32.4693ZM77.2293 32.4693C77.2293 30.1807 76.0802 28.7159 74.3043 28.7159C72.5284 28.7159 71.4092 30.257 71.4092 32.4693C71.4092 34.6817 72.5732 36.2533 74.3043 36.2533C76.0354 36.2533 77.2293 34.7733 77.2293 32.4999V32.4693ZM87.616 33.751C87.7802 35.2921 89.2427 36.2533 91.2872 36.2533C93.3317 36.2533 94.5704 35.2463 94.5704 33.8578C94.5704 32.4693 93.7347 31.9353 91.7648 31.4318L89.7949 30.9436C87.0042 30.257 85.7208 28.9295 85.7208 26.7629C85.7208 24.0775 87.9891 22.2466 91.2275 22.2466C94.4659 22.2466 96.6447 24.0775 96.7194 26.7629H94.3913C94.257 25.2066 93.0034 24.2606 91.1828 24.2606C89.3621 24.2606 88.1085 25.1914 88.1085 26.5798C88.1085 27.6631 88.8995 28.3192 90.8544 28.8227L92.5259 29.2347C95.6449 29.9823 96.9432 31.264 96.9432 33.5374C96.9432 36.4517 94.6748 38.2673 91.0783 38.2673C87.7205 38.2673 85.4372 36.4974 85.3029 33.69L87.616 33.751ZM101.838 24.1386V26.8087H103.942V28.6396H101.838V34.8801C101.838 35.8413 102.256 36.2991 103.181 36.2991C103.435 36.3143 103.674 36.3143 103.927 36.2991V38.13C103.524 38.2063 103.122 38.2521 102.704 38.2368C100.45 38.2368 99.5847 37.3671 99.5847 35.17V28.6396H97.9282V26.8087H99.5399V24.1386H101.838ZM105.151 32.4999C105.151 28.9448 107.211 26.7019 110.404 26.7019C113.613 26.7019 115.642 28.9448 115.642 32.4999C115.642 36.0549 113.628 38.2673 110.404 38.2673C107.181 38.2673 105.151 36.0397 105.151 32.4999ZM113.344 32.4999C113.344 30.0586 112.24 28.6091 110.404 28.6091C108.569 28.6091 107.524 29.9976 107.524 32.4999C107.524 35.0022 108.613 36.3906 110.464 36.3906C112.299 36.3906 113.344 34.9106 113.344 32.4999ZM117.538 26.8392H119.746V28.7464C120.045 27.5105 121.164 26.6561 122.418 26.7171C122.686 26.7171 122.94 26.7477 123.194 26.8087V28.9753C122.88 28.838 122.537 28.7617 122.194 28.7464C120.925 28.6549 119.821 29.6161 119.731 30.913C119.716 31.0809 119.731 31.2335 119.746 31.4013V38.1148H117.538V26.8392ZM133.655 34.8496C133.356 36.8941 131.387 38.3131 128.894 38.3131C125.671 38.3131 123.671 36.1007 123.671 32.5609C123.671 29.0211 125.671 26.7171 128.79 26.7171C131.909 26.7171 133.774 28.8685 133.774 32.3015V33.0949H125.954V33.2475C125.82 34.8648 126.999 36.2991 128.581 36.4364C128.7 36.4517 128.82 36.4517 128.939 36.4517C130.043 36.5585 131.073 35.9176 131.491 34.8648L133.655 34.8496ZM125.984 31.4623H131.521C131.596 29.9671 130.476 28.6854 129.014 28.6091C128.939 28.6091 128.879 28.6091 128.805 28.6091C127.268 28.6091 126.014 29.8603 125.984 31.4318V31.4623Z" fill="white"/>
<path d="M43.6064 11.1683C44.1436 10.8174 44.8152 10.5732 45.6509 10.5732C46.994 10.5732 47.9342 11.2904 47.9342 12.511C47.9342 13.4875 47.2477 14.2351 46.3374 14.4487V14.4793C47.4268 14.6013 48.2327 15.3337 48.2327 16.478C48.2327 18.1259 46.8448 18.782 45.4271 18.782C44.7257 18.782 43.9795 18.6294 43.3975 18.2632L43.6661 17.4545C44.0839 17.6987 44.7704 17.9428 45.4121 17.9428C46.5612 17.9428 47.2029 17.302 47.2029 16.4323C47.2029 15.2422 46.0837 14.9065 45.0987 14.9065H44.6361V14.1283H45.0987C46.1285 14.1283 46.9194 13.4875 46.9194 12.6636C46.9194 11.8549 46.3672 11.4124 45.5315 11.4124C44.9495 11.4124 44.3376 11.6566 43.9198 11.9312L43.6064 11.1683Z" fill="white"/>
<path d="M52.6203 18.6444L52.5457 17.9273H52.5158C52.2024 18.3698 51.6055 18.7817 50.8146 18.7817C49.6804 18.7817 49.1133 17.9731 49.1133 17.1492C49.1133 15.7759 50.3072 15.0131 52.4711 15.0283V14.9062C52.4711 14.4333 52.3517 13.5788 51.2026 13.5788C50.6802 13.5788 50.143 13.7466 49.755 14.006L49.5311 13.3194C49.9938 13.0143 50.6653 12.8159 51.3667 12.8159C53.068 12.8159 53.4859 14.006 53.4859 15.1504V17.2865C53.4859 17.7747 53.5157 18.263 53.5754 18.6597H52.6203V18.6444ZM52.4711 15.7302C51.3667 15.6997 50.1132 15.9133 50.1132 17.0118C50.1132 17.6832 50.5459 18.0036 51.0683 18.0036C51.7995 18.0036 52.2621 17.5306 52.4114 17.0423C52.4412 16.9355 52.4711 16.8135 52.4711 16.7067V15.7302Z" fill="white"/>
<path d="M58.4849 12.938V13.7772H56.0673V18.6444H55.0674V12.938H58.4849Z" fill="white"/>
<path d="M59.4549 14.7986C59.4549 14.0662 59.4251 13.4712 59.4102 12.9371H60.3205L60.3653 13.9136H60.3951C60.813 13.2118 61.4696 12.7998 62.3799 12.7998C63.723 12.7998 64.7378 13.9594 64.7378 15.6988C64.7378 17.7434 63.5141 18.7656 62.2008 18.7656C61.4696 18.7656 60.813 18.43 60.4846 17.8654H60.4548V20.9628H59.4549V14.7986ZM60.4548 16.3244C60.4548 16.4769 60.4846 16.6143 60.4996 16.7516C60.6787 17.4687 61.2905 17.9722 62.0218 17.9722C63.0963 17.9722 63.723 17.072 63.723 15.7751C63.723 14.6307 63.141 13.6542 62.0665 13.6542C61.3801 13.6542 60.7234 14.1578 60.5294 14.9359C60.4996 15.058 60.4548 15.2258 60.4548 15.3631V16.3244Z" fill="white"/>
<path d="M66.2606 12.938L67.4843 16.31C67.6037 16.6914 67.7529 17.1339 67.8425 17.4696H67.8723C67.9768 17.1339 68.0962 16.6914 68.2305 16.2795L69.3348 12.938H70.4093L68.8871 16.9966C68.1559 18.9496 67.6634 19.9566 66.9769 20.5669C66.4844 21.0094 65.992 21.1925 65.7383 21.2383L65.4846 20.3686C65.7383 20.2923 66.0666 20.1244 66.3651 19.8651C66.6486 19.6362 66.9918 19.2395 67.2157 18.7055C67.2605 18.5987 67.2903 18.5224 67.2903 18.4613C67.2903 18.4003 67.2605 18.324 67.2157 18.1867L65.1562 12.938H66.2606Z" fill="white"/>
<path d="M71.8411 15.3335H72.3187C73.1693 15.3335 73.7513 14.9368 73.7513 14.4027C73.7513 13.8992 73.3036 13.5788 72.6619 13.5788C72.2142 13.5788 71.7068 13.7314 71.3188 13.9755L71.0651 13.3347C71.6322 12.9838 72.2739 12.8159 72.9156 12.8159C73.7662 12.8159 74.8109 13.1974 74.8109 14.3112C74.8109 15.0131 74.1841 15.4708 73.5573 15.6081V15.6386C74.393 15.7149 75.0795 16.2337 75.0795 17.0576C75.0795 18.2935 73.8409 18.7512 72.6768 18.7512C72.0202 18.7512 71.3636 18.5681 70.8711 18.2935L71.1397 17.5916C71.5426 17.8205 72.0799 17.9731 72.6171 17.9731C73.4529 17.9731 73.9901 17.5611 73.9901 16.9966C73.9901 16.2337 73.1992 16.0201 72.3634 16.0201H71.856V15.3335H71.8411Z" fill="white"/>
<path d="M77.2735 12.938V15.3487C77.2735 16.2489 77.2585 16.8287 77.2138 17.6374L77.2436 17.6527C77.5719 16.9508 77.7809 16.5541 78.139 15.898L79.8851 12.9532H81.0789V18.6597H80.1089V16.2489C80.1089 15.3182 80.1388 14.83 80.1835 13.9145H80.1537C79.7955 14.6469 79.5567 15.1046 79.2284 15.6844C78.6912 16.5694 78.0943 17.6679 77.4824 18.6597H76.3184V12.938H77.2735Z" fill="white"/>
<path d="M86.4666 12.938V13.7619H84.7205V18.6444H83.7207V13.7619H81.9746V12.938H86.4666Z" fill="white"/>
<path d="M87.7647 15.9743C87.7945 17.378 88.6601 17.9578 89.6749 17.9578C90.4061 17.9578 90.8389 17.8358 91.2269 17.6679L91.406 18.4156C91.0478 18.5834 90.436 18.7665 89.5555 18.7665C87.8393 18.7665 86.8096 17.6069 86.8096 15.898C86.8096 14.1891 87.7945 12.8159 89.4212 12.8159C91.2418 12.8159 91.7194 14.4485 91.7194 15.5013C91.7194 15.7149 91.6895 15.8828 91.6895 15.9896H87.7647V15.9743ZM90.7344 15.2419C90.7494 14.5858 90.4658 13.5636 89.3316 13.5636C88.3019 13.5636 87.8542 14.5248 87.7796 15.2419H90.7344Z" fill="white"/>
<path d="M95.3906 13.0142C95.7786 12.9379 96.5099 12.8921 97.1665 12.8921C98.1067 12.8921 99.6438 13.0447 99.6438 14.3111C99.6438 15.0129 99.1066 15.4554 98.4798 15.5927V15.6232C99.3006 15.7453 99.8975 16.2183 99.8975 17.0422C99.8975 18.5375 98.047 18.7206 96.9576 18.7206C96.3308 18.7206 95.6891 18.6748 95.3906 18.6443V13.0142ZM96.3607 17.9577C96.6442 17.9882 96.8531 18.0035 97.1814 18.0035C97.8679 18.0035 98.8827 17.8356 98.8827 17.0117C98.8827 16.1878 98.0768 16.0047 97.1068 16.0047H96.3756V17.9577H96.3607ZM96.3607 15.3333H97.1217C97.8679 15.3333 98.6439 15.1045 98.6439 14.4331C98.6439 13.8686 98.1664 13.594 97.1516 13.594C96.8233 13.594 96.6143 13.6245 96.3607 13.6397V15.3333Z" fill="white"/>
</svg>
