<svg width="135" height="38" viewBox="0 0 135 38" fill="none" xmlns="http://www.w3.org/2000/svg">
<path d="M130 0H5C2.23858 0 0 2.12665 0 4.75V33.25C0 35.8734 2.23858 38 5 38H130C132.761 38 135 35.8734 135 33.25V4.75C135 2.12665 132.761 0 130 0Z" fill="black"/>
<path d="M68.1401 20.6628C67.3004 20.6665 66.4807 20.9065 65.7844 21.3524C65.0881 21.7983 64.5465 22.4302 64.2279 23.1683C63.9093 23.9064 63.828 24.7176 63.9942 25.4995C64.1605 26.2815 64.5668 26.9991 65.162 27.5619C65.7571 28.1246 66.5144 28.5073 67.3383 28.6615C68.1622 28.8158 69.0157 28.7347 69.7911 28.4286C70.5665 28.1224 71.2291 27.6049 71.6952 26.9414C72.1613 26.2778 72.4101 25.498 72.4101 24.7003C72.4183 24.1663 72.3132 23.6362 72.1013 23.1416C71.8893 22.647 71.5748 22.198 71.1764 21.8213C70.7779 21.4446 70.3038 21.1479 69.7822 20.9488C69.2606 20.7498 68.7021 20.6525 68.1401 20.6628ZM68.1401 27.1513C67.6237 27.1856 67.1083 27.0715 66.6611 26.8239C66.2138 26.5763 65.8553 26.2065 65.6321 25.7628C65.409 25.319 65.3315 24.8217 65.4098 24.3356C65.4881 23.8495 65.7185 23.3969 66.0711 23.0368C66.4237 22.6768 66.8821 22.4258 67.3869 22.3165C67.8916 22.2072 68.4193 22.2447 68.9013 22.4241C69.3833 22.6035 69.7973 22.9166 70.0896 23.3225C70.3819 23.7284 70.5388 24.2085 70.5401 24.7003C70.5562 25.0119 70.5065 25.3234 70.3938 25.6165C70.2812 25.9095 70.1079 26.1782 69.8842 26.4066C69.6606 26.6351 69.391 26.8186 69.0914 26.9465C68.7919 27.0744 68.4684 27.144 68.1401 27.1513ZM58.8301 20.6628C57.99 20.6646 57.1692 20.903 56.4717 21.3478C55.7741 21.7926 55.2309 22.4238 54.9108 23.1617C54.5906 23.8997 54.5079 24.7112 54.673 25.4937C54.8381 26.2763 55.2437 26.9948 55.8384 27.5585C56.4332 28.1222 57.1905 28.5058 58.0146 28.6609C58.8388 28.8159 59.6928 28.7354 60.4688 28.4295C61.2448 28.1236 61.908 27.6061 62.3745 26.9424C62.8411 26.2786 63.0901 25.4984 63.0901 24.7003C63.0982 24.1663 62.9932 23.6362 62.7813 23.1416C62.5693 22.647 62.2548 22.198 61.8564 21.8213C61.4579 21.4446 60.9838 21.1479 60.4622 20.9488C59.9406 20.7498 59.3821 20.6525 58.8201 20.6628H58.8301ZM58.8301 27.1513C58.3134 27.1875 57.7972 27.0751 57.3487 26.8288C56.9002 26.5824 56.5402 26.2135 56.3155 25.77C56.0907 25.3266 56.0118 24.8291 56.0888 24.3424C56.1658 23.8557 56.3953 23.4023 56.7474 23.0413C57.0995 22.6802 57.5578 22.4282 58.0628 22.3181C58.5677 22.2079 59.0959 22.2448 59.5785 22.4238C60.0611 22.6028 60.4757 22.9157 60.7685 23.3217C61.0613 23.7277 61.2187 24.2081 61.2201 24.7003C61.2362 25.0119 61.1865 25.3234 61.0738 25.6165C60.9612 25.9095 60.7879 26.1782 60.5642 26.4066C60.3406 26.6351 60.071 26.8186 59.7714 26.9465C59.4719 27.0744 59.1484 27.144 58.8201 27.1513H58.8301ZM47.7401 21.9073V23.6173H52.0601C51.9924 24.4227 51.6399 25.1827 51.0601 25.7738C50.6279 26.192 50.1083 26.5196 49.5348 26.7356C48.9613 26.9516 48.3465 27.0511 47.7301 27.0278C46.4571 27.0278 45.2362 26.5473 44.336 25.6922C43.4358 24.837 42.9301 23.6771 42.9301 22.4678C42.9301 21.2584 43.4358 20.0985 44.336 19.2434C45.2362 18.3882 46.4571 17.9078 47.7301 17.9078C48.9479 17.8889 50.1239 18.3296 51.0001 19.1333L52.2701 17.9268C51.6786 17.3577 50.9728 16.9073 50.1947 16.6021C49.4166 16.297 48.5819 16.1433 47.7401 16.1503C46.8511 16.1174 45.9643 16.2554 45.1327 16.5559C44.3012 16.8564 43.5421 17.3133 42.9009 17.8992C42.2596 18.4851 41.7495 19.188 41.4011 19.9656C41.0527 20.7433 40.873 21.5798 40.873 22.425C40.873 23.2702 41.0527 24.1067 41.4011 24.8844C41.7495 25.662 42.2596 26.3649 42.9009 26.9508C43.5421 27.5367 44.3012 27.9936 45.1327 28.2941C45.9643 28.5947 46.8511 28.7326 47.7401 28.6998C48.5961 28.7365 49.4504 28.5987 50.2455 28.2955C51.0407 27.9924 51.7583 27.5309 52.3501 26.9423C53.3978 25.8487 53.9571 24.4112 53.9101 22.9333C53.9133 22.5732 53.8798 22.2137 53.8101 21.8598L47.7401 21.9073ZM93.0501 23.2373C92.7893 22.5084 92.3016 21.8719 91.6516 21.4122C91.0016 20.9524 90.2199 20.6911 89.4101 20.6628C88.8631 20.6617 88.3217 20.7673 87.8193 20.973C87.317 21.1786 86.8644 21.48 86.4895 21.8584C86.1146 22.2368 85.8254 22.6842 85.6397 23.173C85.4541 23.6618 85.3759 24.1816 85.4101 24.7003C85.3979 25.2312 85.4986 25.7591 85.706 26.2523C85.9133 26.7455 86.2232 27.1939 86.6171 27.5708C87.0111 27.9476 87.4809 28.2452 87.9985 28.4457C88.5162 28.6462 89.0711 28.7455 89.6301 28.7378C90.3296 28.7413 91.0191 28.5801 91.6369 28.2684C92.2547 27.9567 92.7815 27.5043 93.1701 26.9518L91.7201 26.0018C91.5037 26.3445 91.1973 26.628 90.8309 26.8245C90.4646 27.021 90.0508 27.1238 89.6301 27.1228C89.1969 27.1384 88.7688 27.03 88.4014 26.8114C88.034 26.5928 87.7444 26.2743 87.5701 25.8973L93.2601 23.6648L93.0501 23.2373ZM87.2501 24.5863C87.2298 24.2924 87.2715 23.9977 87.3726 23.7193C87.4737 23.441 87.6323 23.1846 87.8391 22.9652C88.0458 22.7458 88.2966 22.5678 88.5766 22.4416C88.8567 22.3154 89.1604 22.2435 89.4701 22.2303C89.7927 22.2101 90.1144 22.2803 90.3953 22.4323C90.6762 22.5843 90.9039 22.8114 91.0501 23.0853L87.2501 24.5863ZM82.6301 28.5003H84.5001V16.6253H82.6301V28.5003ZM79.5701 21.5653H79.5001C79.2183 21.2659 78.873 21.0265 78.487 20.8628C78.101 20.6991 77.6829 20.6147 77.2601 20.6153C76.1673 20.6656 75.1367 21.1135 74.3821 21.866C73.6274 22.6186 73.2064 23.6181 73.2064 24.6575C73.2064 25.6969 73.6274 26.6965 74.3821 27.449C75.1367 28.2016 76.1673 28.6494 77.2601 28.6998C77.6839 28.7065 78.104 28.625 78.491 28.4608C78.8781 28.2967 79.2225 28.054 79.5001 27.7498H79.5601V28.3293C79.5601 29.8778 78.6901 30.7043 77.2901 30.7043C76.8238 30.6939 76.3713 30.5519 75.9902 30.2965C75.6091 30.041 75.3167 29.6836 75.1501 29.2698L73.5201 29.9158C73.8269 30.6248 74.3497 31.2306 75.0214 31.6554C75.6931 32.0803 76.4831 32.3048 77.2901 32.3003C79.4801 32.3003 81.2901 31.0748 81.2901 28.0918V20.9003H79.5701V21.5653ZM77.4301 27.1513C76.785 27.0973 76.1847 26.8157 75.7474 26.362C75.31 25.9083 75.0675 25.3154 75.0675 24.7003C75.0675 24.0851 75.31 23.4922 75.7474 23.0385C76.1847 22.5849 76.785 22.3033 77.4301 22.2493C77.7499 22.2648 78.0632 22.3411 78.3516 22.4735C78.6399 22.6059 78.8974 22.7918 79.1089 23.0202C79.3205 23.2486 79.4818 23.5149 79.5833 23.8034C79.6848 24.092 79.7245 24.3969 79.7001 24.7003C79.7274 25.0049 79.6893 25.3117 79.5883 25.602C79.4872 25.8922 79.3252 26.16 79.1121 26.3892C78.8989 26.6183 78.6391 26.8039 78.3483 26.9349C78.0575 27.0659 77.7417 27.1395 77.4201 27.1513H77.4301ZM101.81 16.6253H97.3401V28.5003H99.2101V23.9973H101.82C102.353 24.0336 102.888 23.9653 103.392 23.7966C103.896 23.6278 104.358 23.3622 104.749 23.0164C105.14 22.6705 105.452 22.2519 105.665 21.7865C105.879 21.321 105.989 20.8189 105.989 20.3113C105.989 19.8036 105.879 19.3015 105.665 18.8361C105.452 18.3707 105.14 17.952 104.749 17.6061C104.358 17.2603 103.896 16.9947 103.392 16.826C102.888 16.6572 102.353 16.5889 101.82 16.6253H101.81ZM101.81 22.3253H99.2001V18.2783H101.85C102.419 18.2783 102.965 18.4929 103.367 18.8751C103.769 19.2573 103.995 19.7756 103.995 20.316C103.995 20.8565 103.769 21.3748 103.367 21.7569C102.965 22.1391 102.419 22.3538 101.85 22.3538L101.81 22.3253ZM113.34 20.6153C112.659 20.5766 111.981 20.7277 111.39 21.0501C110.798 21.3725 110.319 21.852 110.01 22.4298L111.67 23.0853C111.834 22.7987 112.082 22.5635 112.383 22.4083C112.685 22.2532 113.028 22.1847 113.37 22.2113C113.607 22.1849 113.848 22.2038 114.078 22.2667C114.307 22.3296 114.521 22.4353 114.708 22.5777C114.894 22.7201 115.048 22.8962 115.162 23.0959C115.276 23.2956 115.346 23.5148 115.37 23.7408V23.8643C114.769 23.5622 114.1 23.4055 113.42 23.4083C111.63 23.4083 109.82 24.3583 109.82 26.0778C109.838 26.4444 109.933 26.804 110.099 27.1352C110.266 27.4664 110.5 27.7625 110.789 28.0061C111.078 28.2496 111.416 28.4357 111.782 28.5532C112.148 28.6707 112.535 28.7173 112.92 28.6903C113.391 28.7224 113.862 28.6335 114.285 28.4329C114.707 28.2323 115.065 27.9274 115.32 27.5503H115.38V28.5003H117.18V23.9308C117.18 21.8503 115.52 20.6438 113.39 20.6438L113.34 20.6153ZM113.11 27.1228C112.5 27.1228 111.65 26.8283 111.65 26.1158C111.65 25.1658 112.71 24.8523 113.65 24.8523C114.244 24.8383 114.831 24.9761 115.35 25.2513C115.288 25.7656 115.031 26.2411 114.629 26.5903C114.227 26.9394 113.705 27.1386 113.16 27.1513L113.11 27.1228ZM123.74 20.9003L121.6 26.0493H121.54L119.32 20.9003H117.32L120.65 28.1013L118.75 32.1008H120.7L125.82 20.9003H123.74ZM106.93 28.5003H108.8V16.6253H106.93V28.5003Z" fill="white"/>
<path d="M10.4401 7.16318C10.1142 7.53473 9.9497 8.01039 9.98014 8.49318V29.5072C9.9497 29.99 10.1142 30.4656 10.4401 30.8372L10.5101 30.9037L22.9001 19.1427V18.8672L10.5101 7.09668L10.4401 7.16318Z" fill="url(#paint0_linear)"/>
<path d="M27.0004 23.0661L22.9004 19.1426V18.8671L27.0004 14.9341L27.0904 14.9816L32.0004 17.6321C33.4004 18.3826 33.4004 19.6176 32.0004 20.3776L27.1104 23.0186L27.0004 23.0661Z" fill="url(#paint1_linear)"/>
<path d="M27.1195 23.009L22.8995 19L10.4395 30.837C10.7248 31.0753 11.0888 31.2114 11.4686 31.2218C11.8484 31.2322 12.2201 31.1163 12.5195 30.894L27.1295 23.009" fill="url(#paint2_linear)"/>
<path d="M27.1197 14.9908L12.5097 7.10583C12.2103 6.88354 11.8387 6.76758 11.4589 6.77799C11.0791 6.7884 10.715 6.92452 10.4297 7.16283L22.8997 18.9998L27.1197 14.9908Z" fill="url(#paint3_linear)"/>
<path opacity="0.2" d="M26.9995 22.9233L12.5095 30.7608C12.2207 30.9659 11.8699 31.0767 11.5095 31.0767C11.149 31.0767 10.7982 30.9659 10.5095 30.7608L10.4395 30.8273L10.5095 30.8938C10.7975 31.1004 11.1486 31.2121 11.5095 31.2121C11.8703 31.2121 12.2214 31.1004 12.5095 30.8938L27.1195 23.0088L26.9995 22.9233Z" fill="black"/>
<path opacity="0.12" d="M32 20.235L27 22.9235L27.09 23.009L32 20.368C32.2786 20.2437 32.5178 20.0517 32.6933 19.8115C32.8689 19.5714 32.9747 19.2914 33 19C32.9438 19.2648 32.8244 19.5138 32.651 19.7279C32.4777 19.942 32.255 20.1154 32 20.235Z" fill="black"/>
<path opacity="0.25" d="M12.5107 7.23882L32.0007 17.7648C32.2557 17.8844 32.4784 18.0579 32.6517 18.272C32.8251 18.486 32.9445 18.735 33.0007 18.9998C32.9754 18.7084 32.8696 18.4285 32.694 18.1883C32.5185 17.9481 32.2793 17.7562 32.0007 17.6318L12.5107 7.10582C11.1107 6.35532 9.9707 6.98232 9.9707 8.50232V8.64482C10.0007 7.11532 11.1207 6.48832 12.5107 7.23882Z" fill="white"/>
<path d="M42.1111 13.5564H41.3711V11.6564H42.0011C42.2884 11.3672 42.5053 11.0217 42.6366 10.6441C42.7679 10.2666 42.8104 9.86625 42.7611 9.4714V6.6499H46.7611V11.6469H47.4311V13.5469H46.6911V12.3499H42.1111V13.5564ZM43.5011 9.4999C43.5478 10.2662 43.349 11.028 42.9311 11.6849H45.9311V7.3529H43.5011V9.4999Z" fill="white" stroke="white" stroke-width="0.2" stroke-miterlimit="10"/>
<path d="M53.4098 11.6089C52.8252 12.1612 52.0343 12.4712 51.2098 12.4712C50.3853 12.4712 49.5944 12.1612 49.0098 11.6089C48.4416 11.0375 48.125 10.2812 48.125 9.49515C48.125 8.70908 48.4416 7.9528 49.0098 7.3814C49.2979 7.10566 49.6407 6.88681 50.0183 6.73746C50.3958 6.58812 50.8008 6.51123 51.2098 6.51123C51.6188 6.51123 52.0237 6.58812 52.4013 6.73746C52.7789 6.88681 53.1216 7.10566 53.4098 7.3814C53.9803 7.95171 54.2984 8.7084 54.2984 9.49515C54.2984 10.2819 53.9803 11.0386 53.4098 11.6089ZM49.5798 11.1339C50.0127 11.5435 50.5988 11.7734 51.2098 11.7734C51.8208 11.7734 52.4069 11.5435 52.8398 11.1339C53.267 10.6865 53.5037 10.104 53.5037 9.4999C53.5037 8.8958 53.267 8.31333 52.8398 7.8659C52.4069 7.45633 51.8208 7.22638 51.2098 7.22638C50.5988 7.22638 50.0127 7.45633 49.5798 7.8659C49.1526 8.31333 48.9159 8.8958 48.9159 9.4999C48.9159 10.104 49.1526 10.6865 49.5798 11.1339Z" fill="white" stroke="white" stroke-width="0.2" stroke-miterlimit="10"/>
<path d="M58.1794 12.4737C57.7666 12.4815 57.3564 12.4098 56.9735 12.263C56.5906 12.1162 56.2429 11.8973 55.9514 11.6195C55.6599 11.3417 55.4306 11.0107 55.2773 10.6465C55.124 10.2823 55.0499 9.89234 55.0594 9.50018C55.0499 9.10803 55.124 8.7181 55.2773 8.35387C55.4306 7.98964 55.6599 7.65866 55.9514 7.38084C56.2429 7.10303 56.5906 6.88413 56.9735 6.73734C57.3564 6.59054 57.7666 6.51889 58.1794 6.52669C58.5978 6.51684 59.0132 6.59721 59.3942 6.76175C59.7752 6.92629 60.1121 7.17072 60.3794 7.47669L59.8394 7.97068C59.6419 7.73247 59.3872 7.54263 59.0967 7.41702C58.8062 7.29141 58.4882 7.23369 58.1694 7.24868C57.8625 7.2411 57.5571 7.29276 57.2718 7.40054C56.9864 7.50831 56.7271 7.66995 56.5094 7.87569C56.0758 8.32579 55.8354 8.91381 55.8354 9.52393C55.8354 10.1341 56.0758 10.7221 56.5094 11.1722C56.7271 11.3779 56.9864 11.5396 57.2718 11.6473C57.5571 11.7551 57.8625 11.8068 58.1694 11.7992C58.5214 11.7962 58.8683 11.7188 59.1848 11.5725C59.5013 11.4263 59.7796 11.2149 59.9994 10.9537L60.5394 11.4667C60.2672 11.7803 59.9259 12.0333 59.5394 12.2077C59.1125 12.3913 58.6479 12.4822 58.1794 12.4737Z" fill="white" stroke="white" stroke-width="0.2" stroke-miterlimit="10"/>
<path d="M63.6805 12.3499H62.9105V7.3529H61.2305V6.6499H65.3505V7.3529H63.6805V12.3499Z" fill="white" stroke="white" stroke-width="0.2" stroke-miterlimit="10"/>
<path d="M70.6502 6.6499L68.3801 11.4569C68.2893 11.7413 68.1077 11.9918 67.8605 12.1739C67.6133 12.356 67.3127 12.4606 67.0002 12.4734C66.7935 12.4709 66.5894 12.4289 66.4002 12.3499L66.6002 11.6754C66.7217 11.7426 66.8595 11.7786 67.0002 11.7799C67.1471 11.7904 67.2939 11.7572 67.4202 11.6849C67.5406 11.588 67.6335 11.4639 67.6902 11.3239L67.9102 10.8679L65.9102 6.6594H66.8202L68.3002 9.9274L69.7402 6.6499H70.6502Z" fill="white" stroke="white" stroke-width="0.2" stroke-miterlimit="10"/>
<path d="M71.5195 12.3499V6.6499H75.8595V12.3499H75.0895V7.3529H72.2895V12.3499H71.5195Z" fill="white" stroke="white" stroke-width="0.2" stroke-miterlimit="10"/>
<path d="M77.2305 12.3499V6.6499H78.0005V9.0914H81.0005V6.6499H81.7705V12.3499H81.0005V9.7754H78.0005V12.3499H77.2305Z" fill="white" stroke="white" stroke-width="0.2" stroke-miterlimit="10"/>
<path d="M88.0602 11.6089C87.4756 12.1612 86.6846 12.4712 85.8602 12.4712C85.0357 12.4712 84.2448 12.1612 83.6602 11.6089C83.092 11.0375 82.7754 10.2812 82.7754 9.49515C82.7754 8.70908 83.092 7.9528 83.6602 7.3814C83.9483 7.10566 84.2911 6.88681 84.6687 6.73746C85.0462 6.58812 85.4512 6.51123 85.8602 6.51123C86.2692 6.51123 86.6741 6.58812 87.0517 6.73746C87.4293 6.88681 87.772 7.10566 88.0602 7.3814C88.6307 7.95171 88.9488 8.7084 88.9488 9.49515C88.9488 10.2819 88.6307 11.0386 88.0602 11.6089ZM84.2302 11.1339C84.6631 11.5435 85.2492 11.7734 85.8602 11.7734C86.4712 11.7734 87.0573 11.5435 87.4902 11.1339C87.9174 10.6865 88.1541 10.104 88.1541 9.4999C88.1541 8.8958 87.9174 8.31333 87.4902 7.8659C87.0573 7.45633 86.4712 7.22638 85.8602 7.22638C85.2492 7.22638 84.6631 7.45633 84.2302 7.8659C83.803 8.31333 83.5663 8.8958 83.5663 9.4999C83.5663 10.104 83.803 10.6865 84.2302 11.1339Z" fill="white" stroke="white" stroke-width="0.2" stroke-miterlimit="10"/>
<path d="M92.0898 12.3497V6.64971H94.2598C94.7104 6.64163 95.1471 6.79804 95.4799 7.08671C95.6469 7.22448 95.7801 7.39544 95.87 7.58751C95.9599 7.77958 96.0042 7.98807 95.9998 8.19821C96.0045 8.45145 95.9278 8.70001 95.7798 8.91071C95.633 9.11537 95.4286 9.27668 95.1898 9.37621C95.4799 9.46743 95.7343 9.63959 95.9198 9.87021C96.1121 10.103 96.2145 10.3914 96.2098 10.6872C96.215 10.9062 96.1692 11.1236 96.0759 11.3239C95.9826 11.5242 95.8439 11.7026 95.6698 11.8462C95.3216 12.1513 94.8635 12.318 94.3898 12.3117L92.0898 12.3497ZM92.8598 9.09121H94.2598C94.3906 9.0964 94.521 9.07444 94.6419 9.02685C94.7627 8.97927 94.8713 8.90722 94.9598 8.81571C95.0484 8.73945 95.1198 8.64702 95.17 8.54394C95.2201 8.44087 95.2478 8.32926 95.2516 8.21578C95.2553 8.10229 95.2349 7.98926 95.1917 7.88341C95.1484 7.77757 95.0832 7.68108 94.9998 7.59971C94.9163 7.50991 94.8129 7.43868 94.6972 7.39107C94.5814 7.34346 94.456 7.32063 94.3298 7.32421H92.8998L92.8598 9.09121ZM92.8598 11.6467H94.4099C94.5453 11.651 94.6801 11.6269 94.8045 11.576C94.929 11.525 95.0401 11.4486 95.1298 11.3522C95.3062 11.1785 95.4063 10.9475 95.4099 10.7062C95.4099 10.4543 95.3045 10.2126 95.117 10.0345C94.9294 9.8563 94.6751 9.75621 94.4099 9.75621H92.8898L92.8598 11.6467Z" fill="white" stroke="white" stroke-width="0.2" stroke-miterlimit="10"/>
<defs>
<linearGradient id="paint0_linear" x1="21.8001" y1="8.27468" x2="5.88009" y2="25.0326" gradientUnits="userSpaceOnUse">
<stop stop-color="#00A0FF"/>
<stop offset="0.01" stop-color="#00A1FF"/>
<stop offset="0.26" stop-color="#00BEFF"/>
<stop offset="0.51" stop-color="#00D2FF"/>
<stop offset="0.76" stop-color="#00DFFF"/>
<stop offset="1" stop-color="#00E3FF"/>
</linearGradient>
<linearGradient id="paint1_linear" x1="33.8304" y1="19.0001" x2="9.64039" y2="19.0001" gradientUnits="userSpaceOnUse">
<stop stop-color="#FFE000"/>
<stop offset="0.41" stop-color="#FFBD00"/>
<stop offset="0.78" stop-color="#FFA500"/>
<stop offset="1" stop-color="#FF9C00"/>
</linearGradient>
<linearGradient id="paint2_linear" x1="24.8295" y1="21.185" x2="3.23538" y2="43.9056" gradientUnits="userSpaceOnUse">
<stop stop-color="#FF3A44"/>
<stop offset="1" stop-color="#C31162"/>
</linearGradient>
<linearGradient id="paint3_linear" x1="7.29969" y1="0.170826" x2="16.939" y2="10.3175" gradientUnits="userSpaceOnUse">
<stop stop-color="#32A071"/>
<stop offset="0.07" stop-color="#2DA771"/>
<stop offset="0.48" stop-color="#15CF74"/>
<stop offset="0.8" stop-color="#06E775"/>
<stop offset="1" stop-color="#00F076"/>
</linearGradient>
</defs>
</svg>
