<svg width="169" height="48" viewBox="0 0 169 48" fill="none" xmlns="http://www.w3.org/2000/svg">
<path d="M162.75 0.25H6.5C3.04822 0.25 0.25 2.90831 0.25 6.1875V41.8125C0.25 45.0917 3.04822 47.75 6.5 47.75H162.75C166.202 47.75 169 45.0917 169 41.8125V6.1875C169 2.90831 166.202 0.25 162.75 0.25Z" fill="#364962"/>
<path d="M85.4246 26.0787C84.375 26.0834 83.3504 26.3834 82.48 26.9408C81.6097 27.4982 80.9326 28.288 80.5344 29.2106C80.1361 30.1332 80.0345 31.1472 80.2423 32.1246C80.4501 33.1021 80.958 33.9991 81.702 34.7026C82.4459 35.406 83.3925 35.8843 84.4224 36.0771C85.4522 36.27 86.5191 36.1686 87.4884 35.786C88.4577 35.4033 89.2859 34.7564 89.8685 33.927C90.4512 33.0975 90.7621 32.1227 90.7621 31.1256C90.7723 30.4581 90.641 29.7955 90.3761 29.1773C90.1112 28.559 89.718 27.9978 89.22 27.5269C88.7219 27.056 88.1293 26.6851 87.4772 26.4363C86.8252 26.1875 86.1272 26.0659 85.4246 26.0787ZM85.4246 34.1893C84.7791 34.2322 84.1349 34.0896 83.5758 33.7801C83.0168 33.4706 82.5686 33.0084 82.2897 32.4537C82.0107 31.899 81.9139 31.2774 82.0117 30.6697C82.1096 30.0621 82.3976 29.4964 82.8384 29.0463C83.2791 28.5962 83.8522 28.2825 84.4831 28.1459C85.114 28.0093 85.7736 28.0562 86.3761 28.2804C86.9786 28.5047 87.4962 28.8959 87.8615 29.4033C88.2269 29.9107 88.4231 30.5108 88.4246 31.1256C88.4448 31.5151 88.3826 31.9045 88.2418 32.2708C88.101 32.6371 87.8844 32.973 87.6048 33.2585C87.3252 33.5441 86.9883 33.7735 86.6138 33.9334C86.2394 34.0933 85.835 34.1803 85.4246 34.1893ZM73.7871 26.0787C72.737 26.081 71.7111 26.379 70.8391 26.935C69.9671 27.491 69.2881 28.28 68.888 29.2024C68.4878 30.1248 68.3843 31.1392 68.5907 32.1174C68.7971 33.0956 69.3041 33.9938 70.0476 34.6984C70.791 35.4031 71.7376 35.8825 72.7678 36.0763C73.798 36.2701 74.8655 36.1695 75.8355 35.7871C76.8055 35.4048 77.6345 34.7579 78.2177 33.9282C78.8009 33.0985 79.1121 32.1232 79.1121 31.1256C79.1223 30.4581 78.991 29.7955 78.7261 29.1773C78.4612 28.559 78.068 27.9978 77.57 27.5269C77.0719 27.056 76.4793 26.6851 75.8272 26.4363C75.1752 26.1875 74.4772 26.0659 73.7746 26.0787H73.7871ZM73.7871 34.1893C73.1413 34.2346 72.4961 34.0942 71.9354 33.7862C71.3748 33.4783 70.9247 33.0171 70.6438 32.4628C70.3629 31.9085 70.2642 31.2866 70.3605 30.6783C70.4568 30.0699 70.7437 29.5032 71.1838 29.0518C71.6239 28.6005 72.1968 28.2855 72.828 28.1478C73.4591 28.0102 74.1193 28.0562 74.7226 28.2799C75.3258 28.5037 75.8442 28.8948 76.2102 29.4023C76.5762 29.9099 76.7729 30.5104 76.7746 31.1256C76.7948 31.5151 76.7326 31.9045 76.5918 32.2708C76.451 32.6371 76.2344 32.973 75.9548 33.2585C75.6752 33.5441 75.3383 33.7735 74.9638 33.9334C74.5894 34.0933 74.185 34.1803 73.7746 34.1893H73.7871ZM59.9246 27.6343V29.7718H65.3246C65.24 30.7786 64.7994 31.7286 64.0746 32.4674C63.5344 32.9902 62.8849 33.3998 62.168 33.6697C61.4511 33.9397 60.6827 34.0641 59.9121 34.0349C58.3208 34.0349 56.7947 33.4344 55.6695 32.3655C54.5443 31.2965 53.9121 29.8467 53.9121 28.3349C53.9121 26.8232 54.5443 25.3734 55.6695 24.3044C56.7947 23.2355 58.3208 22.6349 59.9121 22.6349C61.4344 22.6114 62.9043 23.1623 63.9996 24.1668L65.5871 22.6587C64.8477 21.9474 63.9656 21.3844 62.9929 21.0029C62.0202 20.6215 60.9769 20.4294 59.9246 20.4381C58.8134 20.397 57.7048 20.5694 56.6654 20.9451C55.626 21.3208 54.6771 21.8919 53.8756 22.6243C53.0741 23.3566 52.4364 24.2352 52.0009 25.2073C51.5653 26.1794 51.3408 27.225 51.3408 28.2815C51.3408 29.338 51.5653 30.3836 52.0009 31.3557C52.4364 32.3278 53.0741 33.2064 53.8756 33.9387C54.6771 34.6711 55.626 35.2423 56.6654 35.6179C57.7048 35.9936 58.8134 36.166 59.9246 36.1249C60.9946 36.1709 62.0625 35.9986 63.0564 35.6196C64.0504 35.2407 64.9474 34.6639 65.6871 33.9281C66.9967 32.5612 67.6959 30.7643 67.6371 28.9168C67.6412 28.4667 67.5993 28.0173 67.5121 27.5749L59.9246 27.6343ZM116.562 29.2968C116.236 28.3857 115.627 27.5901 114.814 27.0154C114.002 26.4408 113.024 26.1141 112.012 26.0787C111.328 26.0774 110.652 26.2094 110.024 26.4665C109.396 26.7235 108.83 27.1002 108.361 27.5732C107.893 28.0462 107.531 28.6055 107.299 29.2165C107.067 29.8275 106.969 30.4773 107.012 31.1256C106.997 31.7893 107.123 32.4491 107.382 33.0656C107.641 33.6821 108.029 34.2426 108.521 34.7137C109.013 35.1848 109.601 35.5567 110.248 35.8074C110.895 36.058 111.588 36.1822 112.287 36.1724C113.162 36.1769 114.023 35.9753 114.796 35.5857C115.568 35.1961 116.226 34.6306 116.712 33.9399L114.9 32.7524C114.629 33.1809 114.246 33.5352 113.788 33.7809C113.33 34.0265 112.813 34.155 112.287 34.1537C111.746 34.1733 111.211 34.0377 110.751 33.7645C110.292 33.4913 109.93 33.0931 109.712 32.6218L116.825 29.8312L116.562 29.2968ZM109.312 30.9831C109.287 30.6158 109.339 30.2474 109.465 29.8994C109.592 29.5515 109.79 29.231 110.048 28.9567C110.307 28.6824 110.62 28.4599 110.97 28.3022C111.32 28.1445 111.7 28.0547 112.087 28.0381C112.49 28.0128 112.892 28.1007 113.244 28.2907C113.595 28.4807 113.879 28.7645 114.062 29.1068L109.312 30.9831ZM103.537 35.8756H105.875V21.0318H103.537V35.8756ZM99.7121 27.2068H99.6246C99.2723 26.8326 98.8408 26.5334 98.3582 26.3288C97.8757 26.1241 97.3531 26.0187 96.8246 26.0193C95.4586 26.0822 94.1705 26.6421 93.2271 27.5828C92.2838 28.5234 91.7576 29.7729 91.7576 31.0721C91.7576 32.3714 92.2838 33.6208 93.2271 34.5615C94.1705 35.5022 95.4586 36.062 96.8246 36.1249C97.3543 36.1334 97.8796 36.0315 98.3633 35.8263C98.8471 35.6211 99.2776 35.3177 99.6246 34.9374H99.6996V35.6618C99.6996 37.5974 98.6121 38.6306 96.8621 38.6306C96.2793 38.6176 95.7137 38.4402 95.2373 38.1209C94.7609 37.8015 94.3954 37.3548 94.1871 36.8374L92.1496 37.6449C92.5332 38.5312 93.1867 39.2885 94.0263 39.8196C94.866 40.3506 95.8535 40.6313 96.8621 40.6256C99.5996 40.6256 101.862 39.0937 101.862 35.3649V26.3756H99.7121V27.2068ZM97.0371 34.1893C96.2308 34.1218 95.4804 33.7698 94.9337 33.2027C94.3871 32.6356 94.0839 31.8945 94.0839 31.1256C94.0839 30.3566 94.3871 29.6155 94.9337 29.0484C95.4804 28.4813 96.2308 28.1293 97.0371 28.0618C97.4369 28.0813 97.8285 28.1766 98.189 28.3421C98.5494 28.5076 98.8713 28.74 99.1357 29.0255C99.4001 29.311 99.6017 29.6439 99.7286 30.0046C99.8555 30.3652 99.9052 30.7464 99.8746 31.1256C99.9087 31.5064 99.8612 31.8898 99.7348 32.2527C99.6085 32.6155 99.406 32.9503 99.1396 33.2367C98.8732 33.5231 98.5484 33.7552 98.1849 33.9189C97.8214 34.0826 97.4267 34.1746 97.0246 34.1893H97.0371ZM127.512 21.0318H121.925V35.8756H124.262V30.2468H127.525C128.191 30.2923 128.86 30.2069 129.49 29.9959C130.12 29.785 130.697 29.453 131.186 29.0207C131.675 28.5884 132.065 28.0651 132.331 27.4833C132.598 26.9015 132.736 26.2738 132.736 25.6393C132.736 25.0048 132.598 24.3771 132.331 23.7953C132.065 23.2136 131.675 22.6902 131.186 22.2579C130.697 21.8256 130.12 21.4937 129.49 21.2827C128.86 21.0718 128.191 20.9863 127.525 21.0318H127.512ZM127.512 28.1568H124.25V23.0981H127.562C128.273 23.0981 128.955 23.3664 129.458 23.8441C129.961 24.3218 130.243 24.9697 130.243 25.6453C130.243 26.3208 129.961 26.9687 129.458 27.4464C128.955 27.9241 128.273 28.1924 127.562 28.1924L127.512 28.1568ZM141.925 26.0193C141.074 25.971 140.226 26.1599 139.487 26.5629C138.747 26.9658 138.148 27.5652 137.762 28.2874L139.837 29.1068C140.042 28.7486 140.352 28.4546 140.729 28.2607C141.106 28.0667 141.535 27.9811 141.962 28.0143C142.259 27.9814 142.56 28.0049 142.847 28.0836C143.134 28.1622 143.401 28.2944 143.634 28.4723C143.867 28.6503 144.06 28.8705 144.202 29.1201C144.344 29.3698 144.433 29.6438 144.462 29.9262V30.0806C143.711 29.7029 142.874 29.5072 142.025 29.5106C139.787 29.5106 137.525 30.6981 137.525 32.8474C137.547 33.3057 137.665 33.7552 137.873 34.1692C138.081 34.5832 138.375 34.9534 138.736 35.2578C139.097 35.5623 139.519 35.7948 139.977 35.9417C140.434 36.0886 140.918 36.1469 141.4 36.1131C141.988 36.1532 142.577 36.0421 143.105 35.7914C143.633 35.5406 144.08 35.1595 144.4 34.6881H144.475V35.8756H146.725V30.1637C146.725 27.5631 144.65 26.0549 141.987 26.0549L141.925 26.0193ZM141.637 34.1537C140.875 34.1537 139.812 33.7856 139.812 32.8949C139.812 31.7074 141.137 31.3156 142.312 31.3156C143.055 31.2982 143.789 31.4704 144.437 31.8143C144.359 32.4572 144.039 33.0516 143.536 33.4881C143.033 33.9245 142.381 34.1735 141.7 34.1893L141.637 34.1537ZM154.925 26.3756L152.25 32.8118H152.175L149.4 26.3756H146.9L151.062 35.3768L148.687 40.3762H151.125L157.525 26.3756H154.925ZM133.912 35.8756H136.25V21.0318H133.912V35.8756Z" fill="white"/>
<path d="M13.3002 9.20422C12.8928 9.66866 12.6871 10.2632 12.7252 10.8667V37.1342C12.6871 37.7377 12.8928 38.3323 13.3002 38.7967L13.3877 38.8798L28.8752 24.1786V23.8342L13.3877 9.12109L13.3002 9.20422Z" fill="url(#paint0_linear)"/>
<path d="M34 29.0825L28.875 24.1781V23.8337L34 18.9175L34.1125 18.9769L40.25 22.29C42 23.2281 42 24.7719 40.25 25.7219L34.1375 29.0231L34 29.0825Z" fill="url(#paint1_linear)"/>
<path d="M34.1498 29.0113L28.8748 24L13.2998 38.7962C13.6565 39.0941 14.1115 39.2643 14.5863 39.2773C15.061 39.2903 15.5256 39.1454 15.8998 38.8675L34.1623 29.0113" fill="url(#paint2_linear)"/>
<path d="M34.1496 18.9885L15.8871 9.13228C15.5129 8.85442 15.0483 8.70948 14.5736 8.72249C14.0989 8.73549 13.6438 8.90565 13.2871 9.20353L28.8746 23.9998L34.1496 18.9885Z" fill="url(#paint3_linear)"/>
<path opacity="0.2" d="M33.9998 28.9043L15.8873 38.7012C15.5264 38.9575 15.0879 39.096 14.6373 39.096C14.1867 39.096 13.7482 38.9575 13.3873 38.7012L13.2998 38.7843L13.3873 38.8674C13.7474 39.1256 14.1862 39.2652 14.6373 39.2652C15.0884 39.2652 15.5272 39.1256 15.8873 38.8674L34.1498 29.0112L33.9998 28.9043Z" fill="black"/>
<path opacity="0.12" d="M40.25 25.5437L34 28.9044L34.1125 29.0113L40.25 25.71C40.5983 25.5546 40.8972 25.3147 41.1167 25.0144C41.3361 24.7142 41.4684 24.3643 41.5 24C41.4297 24.331 41.2805 24.6422 41.0638 24.9098C40.8471 25.1774 40.5687 25.3943 40.25 25.5437Z" fill="black"/>
<path opacity="0.25" d="M15.8879 9.29865L40.2504 22.4561C40.5691 22.6056 40.8475 22.8224 41.0642 23.0901C41.2809 23.3577 41.4301 23.6689 41.5004 23.9999C41.4687 23.6356 41.3365 23.2857 41.1171 22.9855C40.8976 22.6852 40.5986 22.4453 40.2504 22.2899L15.8879 9.13239C14.1379 8.19427 12.7129 8.97802 12.7129 10.878V11.0561C12.7504 9.14427 14.1504 8.36052 15.8879 9.29865Z" fill="white"/>
<path d="M52.8879 17.1956H51.9629V14.8206H52.7504C53.1095 14.4591 53.3806 14.0272 53.5448 13.5553C53.7089 13.0833 53.7621 12.5829 53.7004 12.0894V8.5625H58.7004V14.8088H59.5379V17.1838H58.6129V15.6875H52.8879V17.1956ZM54.6254 12.125C54.6837 13.0829 54.4353 14.0351 53.9129 14.8562H57.6629V9.44125H54.6254V12.125Z" fill="white" stroke="white" stroke-width="0.2" stroke-miterlimit="10"/>
<path d="M67.0122 14.7612C66.2815 15.4516 65.2928 15.8391 64.2622 15.8391C63.2317 15.8391 62.243 15.4516 61.5122 14.7612C60.802 14.047 60.4062 13.1016 60.4062 12.1191C60.4062 11.1365 60.802 10.1911 61.5122 9.47687C61.8724 9.13219 62.3009 8.85863 62.7728 8.67195C63.2448 8.48527 63.751 8.38916 64.2622 8.38916C64.7735 8.38916 65.2797 8.48527 65.7517 8.67195C66.2236 8.85863 66.6521 9.13219 67.0122 9.47687C67.7253 10.1898 68.123 11.1356 68.123 12.1191C68.123 13.1025 67.7253 14.0484 67.0122 14.7612ZM62.2247 14.1675C62.7659 14.6795 63.4985 14.9669 64.2622 14.9669C65.026 14.9669 65.7586 14.6795 66.2997 14.1675C66.8338 13.6082 67.1296 12.8801 67.1296 12.125C67.1296 11.3699 66.8338 10.6418 66.2997 10.0825C65.7586 9.57054 65.026 9.2831 64.2622 9.2831C63.4985 9.2831 62.7659 9.57054 62.2247 10.0825C61.6907 10.6418 61.3949 11.3699 61.3949 12.125C61.3949 12.8801 61.6907 13.6082 62.2247 14.1675Z" fill="white" stroke="white" stroke-width="0.2" stroke-miterlimit="10"/>
<path d="M72.9752 15.842C72.4592 15.8517 71.9464 15.7622 71.4678 15.5787C70.9892 15.3952 70.5546 15.1216 70.1902 14.7743C69.8258 14.427 69.5392 14.0133 69.3476 13.558C69.156 13.1027 69.0633 12.6153 69.0752 12.1251C69.0633 11.6349 69.156 11.1475 69.3476 10.6922C69.5392 10.2369 69.8258 9.8232 70.1902 9.47593C70.5546 9.12866 70.9892 8.85504 71.4678 8.67155C71.9464 8.48806 72.4592 8.39849 72.9752 8.40823C73.4983 8.39593 74.0174 8.49639 74.4937 8.70206C74.97 8.90774 75.3911 9.21328 75.7252 9.59573L75.0502 10.2132C74.8033 9.91546 74.485 9.67816 74.1219 9.52115C73.7587 9.36415 73.3612 9.29199 72.9627 9.31073C72.5791 9.30126 72.1973 9.36583 71.8407 9.50055C71.484 9.63526 71.1598 9.83732 70.8877 10.0945C70.3458 10.6571 70.0452 11.3921 70.0452 12.1548C70.0452 12.9175 70.3458 13.6525 70.8877 14.2151C71.1598 14.4723 71.484 14.6743 71.8407 14.809C72.1973 14.9438 72.5791 15.0083 72.9627 14.9989C73.4027 14.9951 73.8363 14.8983 74.232 14.7155C74.6277 14.5327 74.9755 14.2685 75.2502 13.942L75.9252 14.5832C75.585 14.9753 75.1583 15.2915 74.6752 15.5095C74.1417 15.7391 73.5609 15.8527 72.9752 15.842Z" fill="white" stroke="white" stroke-width="0.2" stroke-miterlimit="10"/>
<path d="M79.8496 15.6875H78.8871V9.44125H76.7871V8.5625H81.9371V9.44125H79.8496V15.6875Z" fill="white" stroke="white" stroke-width="0.2" stroke-miterlimit="10"/>
<path d="M88.5627 8.5625L85.7252 14.5712C85.6116 14.9267 85.3846 15.2399 85.0756 15.4675C84.7666 15.6951 84.3908 15.8259 84.0002 15.8419C83.7418 15.8388 83.4868 15.7863 83.2502 15.6875L83.5002 14.8444C83.6521 14.9284 83.8244 14.9734 84.0002 14.975C84.1839 14.9881 84.3674 14.9466 84.5252 14.8562C84.6758 14.7351 84.7919 14.58 84.8627 14.405L85.1377 13.835L82.6377 8.57438H83.7752L85.6252 12.6594L87.4252 8.5625H88.5627Z" fill="white" stroke="white" stroke-width="0.2" stroke-miterlimit="10"/>
<path d="M89.6504 15.6875V8.5625H95.0754V15.6875H94.1129V9.44125H90.6129V15.6875H89.6504Z" fill="white" stroke="white" stroke-width="0.2" stroke-miterlimit="10"/>
<path d="M96.7871 15.6875V8.5625H97.7496V11.6144H101.5V8.5625H102.462V15.6875H101.5V12.4694H97.7496V15.6875H96.7871Z" fill="white" stroke="white" stroke-width="0.2" stroke-miterlimit="10"/>
<path d="M110.325 14.7612C109.594 15.4516 108.605 15.8391 107.575 15.8391C106.544 15.8391 105.556 15.4516 104.825 14.7612C104.114 14.047 103.719 13.1016 103.719 12.1191C103.719 11.1365 104.114 10.1911 104.825 9.47687C105.185 9.13219 105.613 8.85863 106.085 8.67195C106.557 8.48527 107.064 8.38916 107.575 8.38916C108.086 8.38916 108.592 8.48527 109.064 8.67195C109.536 8.85863 109.965 9.13219 110.325 9.47687C111.038 10.1898 111.435 11.1356 111.435 12.1191C111.435 13.1025 111.038 14.0484 110.325 14.7612ZM105.537 14.1675C106.078 14.6795 106.811 14.9669 107.575 14.9669C108.338 14.9669 109.071 14.6795 109.612 14.1675C110.146 13.6082 110.442 12.8801 110.442 12.125C110.442 11.3699 110.146 10.6418 109.612 10.0825C109.071 9.57054 108.338 9.2831 107.575 9.2831C106.811 9.2831 106.078 9.57054 105.537 10.0825C105.003 10.6418 104.707 11.3699 104.707 12.125C104.707 12.8801 105.003 13.6082 105.537 14.1675Z" fill="white" stroke="white" stroke-width="0.2" stroke-miterlimit="10"/>
<path d="M115.362 15.6874V8.56238H118.075C118.638 8.55228 119.184 8.74779 119.6 9.10863C119.809 9.28084 119.975 9.49455 120.087 9.73463C120.2 9.97472 120.255 10.2353 120.25 10.498C120.256 10.8146 120.16 11.1253 119.975 11.3886C119.791 11.6445 119.536 11.8461 119.237 11.9705C119.6 12.0845 119.918 12.2997 120.15 12.588C120.39 12.879 120.518 13.2395 120.512 13.6093C120.519 13.883 120.462 14.1547 120.345 14.4051C120.228 14.6555 120.055 14.8784 119.837 15.058C119.402 15.4394 118.829 15.6477 118.237 15.6399L115.362 15.6874ZM116.325 11.6143H118.075C118.238 11.6207 118.401 11.5933 118.552 11.5338C118.703 11.4743 118.839 11.3843 118.95 11.2699C119.06 11.1746 119.15 11.059 119.212 10.9302C119.275 10.8013 119.31 10.6618 119.314 10.52C119.319 10.3781 119.294 10.2368 119.24 10.1045C119.186 9.97221 119.104 9.8516 119 9.74988C118.895 9.63763 118.766 9.54859 118.621 9.48908C118.477 9.42956 118.32 9.40103 118.162 9.40551H116.375L116.325 11.6143ZM116.325 14.8086H118.262C118.432 14.814 118.6 14.7838 118.756 14.7202C118.911 14.6566 119.05 14.5611 119.162 14.4405C119.383 14.2233 119.508 13.9346 119.512 13.633C119.512 13.3181 119.381 13.016 119.146 12.7933C118.912 12.5706 118.594 12.4455 118.262 12.4455H116.362L116.325 14.8086Z" fill="white" stroke="white" stroke-width="0.2" stroke-miterlimit="10"/>
<defs>
<linearGradient id="paint0_linear" x1="27.5002" y1="10.5936" x2="7.60012" y2="31.541" gradientUnits="userSpaceOnUse">
<stop stop-color="#00A0FF"/>
<stop offset="0.01" stop-color="#00A1FF"/>
<stop offset="0.26" stop-color="#00BEFF"/>
<stop offset="0.51" stop-color="#00D2FF"/>
<stop offset="0.76" stop-color="#00DFFF"/>
<stop offset="1" stop-color="#00E3FF"/>
</linearGradient>
<linearGradient id="paint1_linear" x1="42.5375" y1="24" x2="12.3" y2="24" gradientUnits="userSpaceOnUse">
<stop stop-color="#FFE000"/>
<stop offset="0.41" stop-color="#FFBD00"/>
<stop offset="0.78" stop-color="#FFA500"/>
<stop offset="1" stop-color="#FF9C00"/>
</linearGradient>
<linearGradient id="paint2_linear" x1="31.2873" y1="26.7313" x2="4.29472" y2="55.132" gradientUnits="userSpaceOnUse">
<stop stop-color="#FF3A44"/>
<stop offset="1" stop-color="#C31162"/>
</linearGradient>
<linearGradient id="paint3_linear" x1="9.37461" y1="0.463533" x2="21.4238" y2="13.1468" gradientUnits="userSpaceOnUse">
<stop stop-color="#32A071"/>
<stop offset="0.07" stop-color="#2DA771"/>
<stop offset="0.48" stop-color="#15CF74"/>
<stop offset="0.8" stop-color="#06E775"/>
<stop offset="1" stop-color="#00F076"/>
</linearGradient>
</defs>
</svg>
