<svg width="18" height="18" viewBox="0 0 18 18" fill="none" xmlns="http://www.w3.org/2000/svg">
<g clip-path="url(#clip0)">
<path d="M14.9475 15.7429C13.3575 17.1529 11.28 18.0004 9 18.0004C4.035 18.0004 0 13.9654 0 9.00045C0 4.22295 3.735 0.307949 8.4375 0.0229492V3.78795C5.805 4.06545 3.75 6.30045 3.75 9.00045C3.75 11.8954 6.105 14.2504 9 14.2504C10.245 14.2504 11.3925 13.8154 12.2925 13.0879L14.9475 15.7429Z" fill="#235DFF"/>
<path d="M17.9779 9.5625C17.8579 11.6175 17.0404 13.4925 15.7429 14.9475L13.0879 12.2925C13.7029 11.535 14.1079 10.59 14.2129 9.5625H17.9779Z" fill="#235DFF"/>
<path d="M17.9775 8.43795H14.2125C13.9575 5.99295 12.0075 4.04295 9.5625 3.78795V0.0229492C14.0775 0.292949 17.7075 3.92295 17.9775 8.43795Z" fill="#235DFF"/>
</g>
<defs>
<clipPath id="clip0">
<rect width="18" height="18" fill="white"/>
</clipPath>
</defs>
</svg>
